<mxfile host="app.diagrams.net" agent="Mozilla/5.0 (Windows NT 10.0; Win64; x64) AppleWebKit/537.36 (KHTML, like Gecko) Chrome/128.0.0.0 Safari/537.36" version="24.7.14">
  <diagram name="Page-1" id="xsuKzcHsBALqd8Z5L2G-">
    <mxGraphModel dx="1834" dy="1268" grid="0" gridSize="10" guides="1" tooltips="1" connect="1" arrows="1" fold="1" page="0" pageScale="1" pageWidth="850" pageHeight="1100" math="0" shadow="0">
      <root>
        <mxCell id="0" />
        <mxCell id="1" parent="0" />
        <mxCell id="Ww74doINeAtsvLlUqA36-1" value="q0" style="ellipse;whiteSpace=wrap;html=1;aspect=fixed;" vertex="1" parent="1">
          <mxGeometry x="33" y="-147" width="80" height="80" as="geometry" />
        </mxCell>
        <mxCell id="Ww74doINeAtsvLlUqA36-2" value="" style="endArrow=classic;html=1;rounded=0;fontSize=12;startSize=8;endSize=8;curved=1;entryX=0;entryY=0.5;entryDx=0;entryDy=0;" edge="1" parent="1" target="Ww74doINeAtsvLlUqA36-1">
          <mxGeometry width="50" height="50" relative="1" as="geometry">
            <mxPoint x="-62" y="-107" as="sourcePoint" />
            <mxPoint x="98" y="-132" as="targetPoint" />
          </mxGeometry>
        </mxCell>
        <mxCell id="Ww74doINeAtsvLlUqA36-3" value="start" style="edgeLabel;html=1;align=center;verticalAlign=middle;resizable=0;points=[];fontSize=12;" vertex="1" connectable="0" parent="Ww74doINeAtsvLlUqA36-2">
          <mxGeometry x="0.5789" y="-2" relative="1" as="geometry">
            <mxPoint as="offset" />
          </mxGeometry>
        </mxCell>
        <mxCell id="Ww74doINeAtsvLlUqA36-4" value="" style="ellipse;whiteSpace=wrap;html=1;aspect=fixed;" vertex="1" parent="1">
          <mxGeometry x="189" y="-147" width="80" height="80" as="geometry" />
        </mxCell>
        <mxCell id="Ww74doINeAtsvLlUqA36-5" value="q1" style="ellipse;whiteSpace=wrap;html=1;aspect=fixed;" vertex="1" parent="1">
          <mxGeometry x="197.5" y="-138.5" width="63" height="63" as="geometry" />
        </mxCell>
        <mxCell id="Ww74doINeAtsvLlUqA36-6" value="" style="endArrow=classic;html=1;rounded=0;fontSize=12;startSize=8;endSize=8;curved=1;entryX=0;entryY=0.5;entryDx=0;entryDy=0;exitX=1;exitY=0.5;exitDx=0;exitDy=0;" edge="1" parent="1" source="Ww74doINeAtsvLlUqA36-1" target="Ww74doINeAtsvLlUqA36-4">
          <mxGeometry width="50" height="50" relative="1" as="geometry">
            <mxPoint x="48" y="-82" as="sourcePoint" />
            <mxPoint x="98" y="-132" as="targetPoint" />
            <Array as="points">
              <mxPoint x="148" y="-133" />
            </Array>
          </mxGeometry>
        </mxCell>
        <mxCell id="Ww74doINeAtsvLlUqA36-7" value="1" style="edgeLabel;html=1;align=center;verticalAlign=middle;resizable=0;points=[];fontSize=12;" vertex="1" connectable="0" parent="Ww74doINeAtsvLlUqA36-6">
          <mxGeometry x="0.1457" y="-11" relative="1" as="geometry">
            <mxPoint as="offset" />
          </mxGeometry>
        </mxCell>
        <mxCell id="Ww74doINeAtsvLlUqA36-8" value="" style="endArrow=classic;html=1;rounded=0;fontSize=12;startSize=8;endSize=8;curved=1;entryX=1;entryY=0.5;entryDx=0;entryDy=0;exitX=0;exitY=0.5;exitDx=0;exitDy=0;" edge="1" parent="1" source="Ww74doINeAtsvLlUqA36-4" target="Ww74doINeAtsvLlUqA36-1">
          <mxGeometry width="50" height="50" relative="1" as="geometry">
            <mxPoint x="103" y="-87" as="sourcePoint" />
            <mxPoint x="153" y="-137" as="targetPoint" />
            <Array as="points">
              <mxPoint x="148" y="-86" />
            </Array>
          </mxGeometry>
        </mxCell>
        <mxCell id="Ww74doINeAtsvLlUqA36-9" value="0" style="edgeLabel;html=1;align=center;verticalAlign=middle;resizable=0;points=[];fontSize=12;" vertex="1" connectable="0" parent="Ww74doINeAtsvLlUqA36-8">
          <mxGeometry x="-0.2084" y="-5" relative="1" as="geometry">
            <mxPoint as="offset" />
          </mxGeometry>
        </mxCell>
        <mxCell id="Ww74doINeAtsvLlUqA36-10" value="" style="endArrow=classic;html=1;rounded=0;fontSize=12;startSize=8;endSize=8;curved=1;entryX=0.5;entryY=0;entryDx=0;entryDy=0;exitX=1;exitY=0;exitDx=0;exitDy=0;" edge="1" parent="1" source="Ww74doINeAtsvLlUqA36-4" target="Ww74doINeAtsvLlUqA36-4">
          <mxGeometry width="50" height="50" relative="1" as="geometry">
            <mxPoint x="280" y="-129" as="sourcePoint" />
            <mxPoint x="240" y="-169" as="targetPoint" />
            <Array as="points">
              <mxPoint x="335" y="-225" />
            </Array>
          </mxGeometry>
        </mxCell>
        <mxCell id="Ww74doINeAtsvLlUqA36-11" value="1" style="edgeLabel;html=1;align=center;verticalAlign=middle;resizable=0;points=[];fontSize=12;" vertex="1" connectable="0" parent="Ww74doINeAtsvLlUqA36-10">
          <mxGeometry x="-0.7448" y="-4" relative="1" as="geometry">
            <mxPoint as="offset" />
          </mxGeometry>
        </mxCell>
        <mxCell id="Ww74doINeAtsvLlUqA36-12" value="" style="endArrow=classic;html=1;rounded=0;fontSize=12;startSize=8;endSize=8;curved=1;entryX=0.5;entryY=0;entryDx=0;entryDy=0;exitX=1;exitY=0;exitDx=0;exitDy=0;" edge="1" parent="1" source="Ww74doINeAtsvLlUqA36-1" target="Ww74doINeAtsvLlUqA36-1">
          <mxGeometry width="50" height="50" relative="1" as="geometry">
            <mxPoint x="103" y="-87" as="sourcePoint" />
            <mxPoint x="153" y="-137" as="targetPoint" />
            <Array as="points">
              <mxPoint x="163" y="-215" />
            </Array>
          </mxGeometry>
        </mxCell>
        <mxCell id="Ww74doINeAtsvLlUqA36-13" value="0" style="edgeLabel;html=1;align=center;verticalAlign=middle;resizable=0;points=[];fontSize=12;" vertex="1" connectable="0" parent="Ww74doINeAtsvLlUqA36-12">
          <mxGeometry x="0.667" relative="1" as="geometry">
            <mxPoint as="offset" />
          </mxGeometry>
        </mxCell>
        <mxCell id="Ww74doINeAtsvLlUqA36-15" value="4a" style="text;html=1;align=center;verticalAlign=middle;whiteSpace=wrap;rounded=0;fontSize=16;" vertex="1" parent="1">
          <mxGeometry x="-63" y="-200" width="60" height="30" as="geometry" />
        </mxCell>
        <mxCell id="Ww74doINeAtsvLlUqA36-20" value="q0" style="ellipse;whiteSpace=wrap;html=1;aspect=fixed;" vertex="1" parent="1">
          <mxGeometry x="50" y="95.47" width="80" height="80" as="geometry" />
        </mxCell>
        <mxCell id="Ww74doINeAtsvLlUqA36-21" value="" style="endArrow=classic;html=1;rounded=0;fontSize=12;startSize=8;endSize=8;curved=1;entryX=0;entryY=0.5;entryDx=0;entryDy=0;" edge="1" parent="1" target="Ww74doINeAtsvLlUqA36-20">
          <mxGeometry width="50" height="50" relative="1" as="geometry">
            <mxPoint x="-45" y="135.47" as="sourcePoint" />
            <mxPoint x="115" y="110.47" as="targetPoint" />
          </mxGeometry>
        </mxCell>
        <mxCell id="Ww74doINeAtsvLlUqA36-22" value="start" style="edgeLabel;html=1;align=center;verticalAlign=middle;resizable=0;points=[];fontSize=12;" vertex="1" connectable="0" parent="Ww74doINeAtsvLlUqA36-21">
          <mxGeometry x="0.5789" y="-2" relative="1" as="geometry">
            <mxPoint as="offset" />
          </mxGeometry>
        </mxCell>
        <mxCell id="Ww74doINeAtsvLlUqA36-31" value="4b" style="text;html=1;align=center;verticalAlign=middle;whiteSpace=wrap;rounded=0;fontSize=16;" vertex="1" parent="1">
          <mxGeometry x="-58" width="60" height="30" as="geometry" />
        </mxCell>
        <mxCell id="Ww74doINeAtsvLlUqA36-34" value="" style="endArrow=classic;html=1;rounded=0;fontSize=12;startSize=8;endSize=8;curved=1;entryX=0.5;entryY=0;entryDx=0;entryDy=0;exitX=1;exitY=0;exitDx=0;exitDy=0;" edge="1" parent="1" source="Ww74doINeAtsvLlUqA36-20">
          <mxGeometry width="50" height="50" relative="1" as="geometry">
            <mxPoint x="129" y="110" as="sourcePoint" />
            <mxPoint x="101" y="98" as="targetPoint" />
            <Array as="points">
              <mxPoint x="191" y="30" />
            </Array>
          </mxGeometry>
        </mxCell>
        <mxCell id="Ww74doINeAtsvLlUqA36-35" value="0" style="edgeLabel;html=1;align=center;verticalAlign=middle;resizable=0;points=[];fontSize=12;" vertex="1" connectable="0" parent="Ww74doINeAtsvLlUqA36-34">
          <mxGeometry x="0.667" relative="1" as="geometry">
            <mxPoint as="offset" />
          </mxGeometry>
        </mxCell>
        <mxCell id="Ww74doINeAtsvLlUqA36-36" value="" style="endArrow=classic;html=1;rounded=0;fontSize=12;startSize=8;endSize=8;curved=1;entryX=0;entryY=0.5;entryDx=0;entryDy=0;exitX=1;exitY=0.5;exitDx=0;exitDy=0;" edge="1" parent="1" source="Ww74doINeAtsvLlUqA36-20">
          <mxGeometry width="50" height="50" relative="1" as="geometry">
            <mxPoint x="130" y="135" as="sourcePoint" />
            <mxPoint x="206" y="135" as="targetPoint" />
            <Array as="points">
              <mxPoint x="165" y="109" />
            </Array>
          </mxGeometry>
        </mxCell>
        <mxCell id="Ww74doINeAtsvLlUqA36-37" value="1" style="edgeLabel;html=1;align=center;verticalAlign=middle;resizable=0;points=[];fontSize=12;" vertex="1" connectable="0" parent="Ww74doINeAtsvLlUqA36-36">
          <mxGeometry x="0.1457" y="-11" relative="1" as="geometry">
            <mxPoint as="offset" />
          </mxGeometry>
        </mxCell>
        <mxCell id="Ww74doINeAtsvLlUqA36-38" value="q1" style="ellipse;whiteSpace=wrap;html=1;aspect=fixed;" vertex="1" parent="1">
          <mxGeometry x="203" y="95.47" width="80" height="80" as="geometry" />
        </mxCell>
        <mxCell id="Ww74doINeAtsvLlUqA36-39" value="" style="endArrow=classic;html=1;rounded=0;fontSize=12;startSize=8;endSize=8;curved=1;entryX=0.5;entryY=0;entryDx=0;entryDy=0;exitX=1;exitY=0;exitDx=0;exitDy=0;" edge="1" parent="1">
          <mxGeometry width="50" height="50" relative="1" as="geometry">
            <mxPoint x="271" y="107" as="sourcePoint" />
            <mxPoint x="243" y="95" as="targetPoint" />
            <Array as="points">
              <mxPoint x="333" y="27" />
            </Array>
          </mxGeometry>
        </mxCell>
        <mxCell id="Ww74doINeAtsvLlUqA36-40" value="0" style="edgeLabel;html=1;align=center;verticalAlign=middle;resizable=0;points=[];fontSize=12;" vertex="1" connectable="0" parent="Ww74doINeAtsvLlUqA36-39">
          <mxGeometry x="0.667" relative="1" as="geometry">
            <mxPoint as="offset" />
          </mxGeometry>
        </mxCell>
        <mxCell id="Ww74doINeAtsvLlUqA36-47" value="q2" style="ellipse;whiteSpace=wrap;html=1;aspect=fixed;" vertex="1" parent="1">
          <mxGeometry x="360" y="92" width="80" height="80" as="geometry" />
        </mxCell>
        <mxCell id="Ww74doINeAtsvLlUqA36-48" value="" style="endArrow=classic;html=1;rounded=0;fontSize=12;startSize=8;endSize=8;curved=1;entryX=0;entryY=0.5;entryDx=0;entryDy=0;" edge="1" parent="1">
          <mxGeometry width="50" height="50" relative="1" as="geometry">
            <mxPoint x="283" y="134" as="sourcePoint" />
            <mxPoint x="359" y="136" as="targetPoint" />
            <Array as="points">
              <mxPoint x="318" y="110" />
            </Array>
          </mxGeometry>
        </mxCell>
        <mxCell id="Ww74doINeAtsvLlUqA36-49" value="1" style="edgeLabel;html=1;align=center;verticalAlign=middle;resizable=0;points=[];fontSize=12;" vertex="1" connectable="0" parent="Ww74doINeAtsvLlUqA36-48">
          <mxGeometry x="0.1457" y="-11" relative="1" as="geometry">
            <mxPoint as="offset" />
          </mxGeometry>
        </mxCell>
        <mxCell id="Ww74doINeAtsvLlUqA36-50" value="" style="endArrow=classic;html=1;rounded=0;fontSize=12;startSize=8;endSize=8;curved=1;entryX=0.5;entryY=0;entryDx=0;entryDy=0;exitX=1;exitY=0;exitDx=0;exitDy=0;" edge="1" parent="1">
          <mxGeometry width="50" height="50" relative="1" as="geometry">
            <mxPoint x="434" y="107" as="sourcePoint" />
            <mxPoint x="406" y="95" as="targetPoint" />
            <Array as="points">
              <mxPoint x="496" y="27" />
            </Array>
          </mxGeometry>
        </mxCell>
        <mxCell id="Ww74doINeAtsvLlUqA36-51" value="0" style="edgeLabel;html=1;align=center;verticalAlign=middle;resizable=0;points=[];fontSize=12;" vertex="1" connectable="0" parent="Ww74doINeAtsvLlUqA36-50">
          <mxGeometry x="0.667" relative="1" as="geometry">
            <mxPoint as="offset" />
          </mxGeometry>
        </mxCell>
        <mxCell id="Ww74doINeAtsvLlUqA36-52" value="q3" style="ellipse;whiteSpace=wrap;html=1;aspect=fixed;" vertex="1" parent="1">
          <mxGeometry x="517" y="95" width="80" height="80" as="geometry" />
        </mxCell>
        <mxCell id="Ww74doINeAtsvLlUqA36-53" value="" style="endArrow=classic;html=1;rounded=0;fontSize=12;startSize=8;endSize=8;curved=1;entryX=0;entryY=0.5;entryDx=0;entryDy=0;" edge="1" parent="1">
          <mxGeometry width="50" height="50" relative="1" as="geometry">
            <mxPoint x="440" y="137" as="sourcePoint" />
            <mxPoint x="516" y="139" as="targetPoint" />
            <Array as="points">
              <mxPoint x="475" y="113" />
            </Array>
          </mxGeometry>
        </mxCell>
        <mxCell id="Ww74doINeAtsvLlUqA36-54" value="1" style="edgeLabel;html=1;align=center;verticalAlign=middle;resizable=0;points=[];fontSize=12;" vertex="1" connectable="0" parent="Ww74doINeAtsvLlUqA36-53">
          <mxGeometry x="0.1457" y="-11" relative="1" as="geometry">
            <mxPoint as="offset" />
          </mxGeometry>
        </mxCell>
        <mxCell id="Ww74doINeAtsvLlUqA36-55" value="" style="endArrow=classic;html=1;rounded=0;fontSize=12;startSize=8;endSize=8;curved=1;entryX=0.5;entryY=0;entryDx=0;entryDy=0;exitX=1;exitY=0;exitDx=0;exitDy=0;" edge="1" parent="1">
          <mxGeometry width="50" height="50" relative="1" as="geometry">
            <mxPoint x="591" y="110" as="sourcePoint" />
            <mxPoint x="563" y="98" as="targetPoint" />
            <Array as="points">
              <mxPoint x="653" y="30" />
            </Array>
          </mxGeometry>
        </mxCell>
        <mxCell id="Ww74doINeAtsvLlUqA36-56" value="0" style="edgeLabel;html=1;align=center;verticalAlign=middle;resizable=0;points=[];fontSize=12;" vertex="1" connectable="0" parent="Ww74doINeAtsvLlUqA36-55">
          <mxGeometry x="0.667" relative="1" as="geometry">
            <mxPoint as="offset" />
          </mxGeometry>
        </mxCell>
        <mxCell id="Ww74doINeAtsvLlUqA36-63" value="" style="endArrow=classic;html=1;rounded=0;fontSize=12;startSize=8;endSize=8;curved=1;entryX=0;entryY=0.5;entryDx=0;entryDy=0;" edge="1" parent="1">
          <mxGeometry width="50" height="50" relative="1" as="geometry">
            <mxPoint x="597" y="137" as="sourcePoint" />
            <mxPoint x="673" y="139" as="targetPoint" />
            <Array as="points">
              <mxPoint x="632" y="113" />
            </Array>
          </mxGeometry>
        </mxCell>
        <mxCell id="Ww74doINeAtsvLlUqA36-64" value="1" style="edgeLabel;html=1;align=center;verticalAlign=middle;resizable=0;points=[];fontSize=12;" vertex="1" connectable="0" parent="Ww74doINeAtsvLlUqA36-63">
          <mxGeometry x="0.1457" y="-11" relative="1" as="geometry">
            <mxPoint as="offset" />
          </mxGeometry>
        </mxCell>
        <mxCell id="Ww74doINeAtsvLlUqA36-65" value="" style="endArrow=classic;html=1;rounded=0;fontSize=12;startSize=8;endSize=8;curved=1;entryX=0.5;entryY=0;entryDx=0;entryDy=0;exitX=0.888;exitY=0.244;exitDx=0;exitDy=0;exitPerimeter=0;" edge="1" parent="1" source="Ww74doINeAtsvLlUqA36-68">
          <mxGeometry width="50" height="50" relative="1" as="geometry">
            <mxPoint x="748" y="110" as="sourcePoint" />
            <mxPoint x="720" y="98" as="targetPoint" />
            <Array as="points">
              <mxPoint x="810" y="30" />
            </Array>
          </mxGeometry>
        </mxCell>
        <mxCell id="Ww74doINeAtsvLlUqA36-67" value="0,1" style="edgeLabel;html=1;align=center;verticalAlign=middle;resizable=0;points=[];fontSize=12;" vertex="1" connectable="0" parent="Ww74doINeAtsvLlUqA36-65">
          <mxGeometry x="0.6916" y="1" relative="1" as="geometry">
            <mxPoint as="offset" />
          </mxGeometry>
        </mxCell>
        <mxCell id="Ww74doINeAtsvLlUqA36-68" value="" style="ellipse;whiteSpace=wrap;html=1;aspect=fixed;" vertex="1" parent="1">
          <mxGeometry x="669" y="95.47" width="80" height="80" as="geometry" />
        </mxCell>
        <mxCell id="Ww74doINeAtsvLlUqA36-69" value="q4" style="ellipse;whiteSpace=wrap;html=1;aspect=fixed;" vertex="1" parent="1">
          <mxGeometry x="677.5" y="103.97" width="63" height="63" as="geometry" />
        </mxCell>
        <mxCell id="Ww74doINeAtsvLlUqA36-70" value="q0" style="ellipse;whiteSpace=wrap;html=1;aspect=fixed;" vertex="1" parent="1">
          <mxGeometry x="43" y="365.47" width="80" height="80" as="geometry" />
        </mxCell>
        <mxCell id="Ww74doINeAtsvLlUqA36-71" value="" style="endArrow=classic;html=1;rounded=0;fontSize=12;startSize=8;endSize=8;curved=1;entryX=0;entryY=0.5;entryDx=0;entryDy=0;" edge="1" parent="1" target="Ww74doINeAtsvLlUqA36-70">
          <mxGeometry width="50" height="50" relative="1" as="geometry">
            <mxPoint x="-52" y="405.47" as="sourcePoint" />
            <mxPoint x="108" y="380.47" as="targetPoint" />
          </mxGeometry>
        </mxCell>
        <mxCell id="Ww74doINeAtsvLlUqA36-72" value="start" style="edgeLabel;html=1;align=center;verticalAlign=middle;resizable=0;points=[];fontSize=12;" vertex="1" connectable="0" parent="Ww74doINeAtsvLlUqA36-71">
          <mxGeometry x="0.5789" y="-2" relative="1" as="geometry">
            <mxPoint as="offset" />
          </mxGeometry>
        </mxCell>
        <mxCell id="Ww74doINeAtsvLlUqA36-73" value="4c" style="text;html=1;align=center;verticalAlign=middle;whiteSpace=wrap;rounded=0;fontSize=16;" vertex="1" parent="1">
          <mxGeometry x="-66" y="270" width="60" height="30" as="geometry" />
        </mxCell>
        <mxCell id="Ww74doINeAtsvLlUqA36-76" value="0,1" style="endArrow=classic;html=1;rounded=0;fontSize=12;startSize=8;endSize=8;curved=1;entryX=0;entryY=0.5;entryDx=0;entryDy=0;exitX=1;exitY=0.5;exitDx=0;exitDy=0;" edge="1" parent="1" source="Ww74doINeAtsvLlUqA36-70">
          <mxGeometry width="50" height="50" relative="1" as="geometry">
            <mxPoint x="123" y="405" as="sourcePoint" />
            <mxPoint x="199" y="405" as="targetPoint" />
            <Array as="points" />
          </mxGeometry>
        </mxCell>
        <mxCell id="Ww74doINeAtsvLlUqA36-78" value="q1" style="ellipse;whiteSpace=wrap;html=1;aspect=fixed;" vertex="1" parent="1">
          <mxGeometry x="196" y="365.47" width="80" height="80" as="geometry" />
        </mxCell>
        <mxCell id="Ww74doINeAtsvLlUqA36-81" value="q2" style="ellipse;whiteSpace=wrap;html=1;aspect=fixed;" vertex="1" parent="1">
          <mxGeometry x="353" y="362" width="80" height="80" as="geometry" />
        </mxCell>
        <mxCell id="Ww74doINeAtsvLlUqA36-82" value="" style="endArrow=classic;html=1;rounded=0;fontSize=12;startSize=8;endSize=8;curved=1;entryX=0;entryY=0.5;entryDx=0;entryDy=0;" edge="1" parent="1">
          <mxGeometry width="50" height="50" relative="1" as="geometry">
            <mxPoint x="276" y="404" as="sourcePoint" />
            <mxPoint x="352" y="406" as="targetPoint" />
            <Array as="points">
              <mxPoint x="311" y="380" />
            </Array>
          </mxGeometry>
        </mxCell>
        <mxCell id="Ww74doINeAtsvLlUqA36-83" value="0,1" style="edgeLabel;html=1;align=center;verticalAlign=middle;resizable=0;points=[];fontSize=12;" vertex="1" connectable="0" parent="Ww74doINeAtsvLlUqA36-82">
          <mxGeometry x="0.1457" y="-11" relative="1" as="geometry">
            <mxPoint as="offset" />
          </mxGeometry>
        </mxCell>
        <mxCell id="Ww74doINeAtsvLlUqA36-86" value="q4" style="ellipse;whiteSpace=wrap;html=1;aspect=fixed;" vertex="1" parent="1">
          <mxGeometry x="669" y="365.47" width="80" height="80" as="geometry" />
        </mxCell>
        <mxCell id="Ww74doINeAtsvLlUqA36-87" value="" style="endArrow=classic;html=1;rounded=0;fontSize=12;startSize=8;endSize=8;curved=1;entryX=0;entryY=0.5;entryDx=0;entryDy=0;" edge="1" parent="1">
          <mxGeometry width="50" height="50" relative="1" as="geometry">
            <mxPoint x="433" y="407" as="sourcePoint" />
            <mxPoint x="509" y="409" as="targetPoint" />
            <Array as="points">
              <mxPoint x="468" y="383" />
            </Array>
          </mxGeometry>
        </mxCell>
        <mxCell id="Ww74doINeAtsvLlUqA36-88" value="0,1" style="edgeLabel;html=1;align=center;verticalAlign=middle;resizable=0;points=[];fontSize=12;" vertex="1" connectable="0" parent="Ww74doINeAtsvLlUqA36-87">
          <mxGeometry x="0.1457" y="-11" relative="1" as="geometry">
            <mxPoint as="offset" />
          </mxGeometry>
        </mxCell>
        <mxCell id="Ww74doINeAtsvLlUqA36-97" value="q3" style="ellipse;whiteSpace=wrap;html=1;aspect=fixed;" vertex="1" parent="1">
          <mxGeometry x="514" y="365.47" width="80" height="80" as="geometry" />
        </mxCell>
        <mxCell id="Ww74doINeAtsvLlUqA36-98" value="" style="endArrow=classic;html=1;rounded=0;fontSize=12;startSize=8;endSize=8;curved=1;entryX=0;entryY=0.5;entryDx=0;entryDy=0;" edge="1" parent="1">
          <mxGeometry width="50" height="50" relative="1" as="geometry">
            <mxPoint x="594" y="406" as="sourcePoint" />
            <mxPoint x="670" y="408" as="targetPoint" />
            <Array as="points">
              <mxPoint x="629" y="382" />
            </Array>
          </mxGeometry>
        </mxCell>
        <mxCell id="Ww74doINeAtsvLlUqA36-99" value="0,1" style="edgeLabel;html=1;align=center;verticalAlign=middle;resizable=0;points=[];fontSize=12;" vertex="1" connectable="0" parent="Ww74doINeAtsvLlUqA36-98">
          <mxGeometry x="0.1457" y="-11" relative="1" as="geometry">
            <mxPoint as="offset" />
          </mxGeometry>
        </mxCell>
        <mxCell id="Ww74doINeAtsvLlUqA36-100" value="q5" style="ellipse;whiteSpace=wrap;html=1;aspect=fixed;" vertex="1" parent="1">
          <mxGeometry x="824" y="365.47" width="80" height="80" as="geometry" />
        </mxCell>
        <mxCell id="Ww74doINeAtsvLlUqA36-101" value="" style="endArrow=classic;html=1;rounded=0;fontSize=12;startSize=8;endSize=8;curved=1;entryX=0;entryY=0.5;entryDx=0;entryDy=0;" edge="1" parent="1">
          <mxGeometry width="50" height="50" relative="1" as="geometry">
            <mxPoint x="749" y="406" as="sourcePoint" />
            <mxPoint x="825" y="408" as="targetPoint" />
            <Array as="points">
              <mxPoint x="784" y="382" />
            </Array>
          </mxGeometry>
        </mxCell>
        <mxCell id="Ww74doINeAtsvLlUqA36-102" value="0,1" style="edgeLabel;html=1;align=center;verticalAlign=middle;resizable=0;points=[];fontSize=12;" vertex="1" connectable="0" parent="Ww74doINeAtsvLlUqA36-101">
          <mxGeometry x="0.1457" y="-11" relative="1" as="geometry">
            <mxPoint as="offset" />
          </mxGeometry>
        </mxCell>
        <mxCell id="Ww74doINeAtsvLlUqA36-103" value="q5" style="ellipse;whiteSpace=wrap;html=1;aspect=fixed;" vertex="1" parent="1">
          <mxGeometry x="831.73" y="373.20000000000005" width="64.53" height="64.53" as="geometry" />
        </mxCell>
        <mxCell id="Ww74doINeAtsvLlUqA36-105" value="q4" style="ellipse;whiteSpace=wrap;html=1;aspect=fixed;" vertex="1" parent="1">
          <mxGeometry x="676.73" y="373.21000000000004" width="64.53" height="64.53" as="geometry" />
        </mxCell>
        <mxCell id="Ww74doINeAtsvLlUqA36-106" value="q3" style="ellipse;whiteSpace=wrap;html=1;aspect=fixed;" vertex="1" parent="1">
          <mxGeometry x="521.73" y="373.2000000000001" width="64.53" height="64.53" as="geometry" />
        </mxCell>
        <mxCell id="Ww74doINeAtsvLlUqA36-107" value="q2" style="ellipse;whiteSpace=wrap;html=1;aspect=fixed;" vertex="1" parent="1">
          <mxGeometry x="360.74" y="369.7300000000001" width="64.53" height="64.53" as="geometry" />
        </mxCell>
        <mxCell id="Ww74doINeAtsvLlUqA36-108" value="q1" style="ellipse;whiteSpace=wrap;html=1;aspect=fixed;" vertex="1" parent="1">
          <mxGeometry x="203.74" y="373.20000000000005" width="64.53" height="64.53" as="geometry" />
        </mxCell>
        <mxCell id="Ww74doINeAtsvLlUqA36-109" value="q0" style="ellipse;whiteSpace=wrap;html=1;aspect=fixed;" vertex="1" parent="1">
          <mxGeometry x="50.74000000000001" y="373.21000000000004" width="64.53" height="64.53" as="geometry" />
        </mxCell>
        <mxCell id="Ww74doINeAtsvLlUqA36-110" value="q6" style="ellipse;whiteSpace=wrap;html=1;aspect=fixed;" vertex="1" parent="1">
          <mxGeometry x="980" y="365.46" width="80" height="80" as="geometry" />
        </mxCell>
        <mxCell id="Ww74doINeAtsvLlUqA36-111" value="" style="endArrow=classic;html=1;rounded=0;fontSize=12;startSize=8;endSize=8;curved=1;entryX=0;entryY=0.5;entryDx=0;entryDy=0;" edge="1" parent="1">
          <mxGeometry width="50" height="50" relative="1" as="geometry">
            <mxPoint x="904" y="405" as="sourcePoint" />
            <mxPoint x="980" y="407" as="targetPoint" />
            <Array as="points">
              <mxPoint x="939" y="381" />
            </Array>
          </mxGeometry>
        </mxCell>
        <mxCell id="Ww74doINeAtsvLlUqA36-112" value="0,1" style="edgeLabel;html=1;align=center;verticalAlign=middle;resizable=0;points=[];fontSize=12;" vertex="1" connectable="0" parent="Ww74doINeAtsvLlUqA36-111">
          <mxGeometry x="0.1457" y="-11" relative="1" as="geometry">
            <mxPoint as="offset" />
          </mxGeometry>
        </mxCell>
        <mxCell id="Ww74doINeAtsvLlUqA36-113" value="" style="endArrow=classic;html=1;rounded=0;fontSize=12;startSize=8;endSize=8;curved=1;entryX=0.5;entryY=0;entryDx=0;entryDy=0;exitX=0.888;exitY=0.244;exitDx=0;exitDy=0;exitPerimeter=0;" edge="1" parent="1">
          <mxGeometry width="50" height="50" relative="1" as="geometry">
            <mxPoint x="1049" y="380" as="sourcePoint" />
            <mxPoint x="1029" y="363" as="targetPoint" />
            <Array as="points">
              <mxPoint x="1119" y="295" />
            </Array>
          </mxGeometry>
        </mxCell>
        <mxCell id="Ww74doINeAtsvLlUqA36-114" value="0,1" style="edgeLabel;html=1;align=center;verticalAlign=middle;resizable=0;points=[];fontSize=12;" vertex="1" connectable="0" parent="Ww74doINeAtsvLlUqA36-113">
          <mxGeometry x="0.6916" y="1" relative="1" as="geometry">
            <mxPoint as="offset" />
          </mxGeometry>
        </mxCell>
        <mxCell id="Ww74doINeAtsvLlUqA36-142" value="" style="endArrow=classic;html=1;rounded=0;fontSize=12;startSize=8;endSize=8;curved=1;entryX=1;entryY=0;entryDx=0;entryDy=0;exitX=0.888;exitY=0.244;exitDx=0;exitDy=0;exitPerimeter=0;" edge="1" parent="1" target="Ww74doINeAtsvLlUqA36-169">
          <mxGeometry width="50" height="50" relative="1" as="geometry">
            <mxPoint x="851.73" y="652.47" as="sourcePoint" />
            <mxPoint x="831.73" y="635.47" as="targetPoint" />
            <Array as="points">
              <mxPoint x="921.73" y="567.47" />
            </Array>
          </mxGeometry>
        </mxCell>
        <mxCell id="Ww74doINeAtsvLlUqA36-186" value="0,1" style="edgeLabel;html=1;align=center;verticalAlign=middle;resizable=0;points=[];fontSize=12;" vertex="1" connectable="0" parent="Ww74doINeAtsvLlUqA36-142">
          <mxGeometry x="-0.7056" y="2" relative="1" as="geometry">
            <mxPoint as="offset" />
          </mxGeometry>
        </mxCell>
        <mxCell id="Ww74doINeAtsvLlUqA36-144" value="q0" style="ellipse;whiteSpace=wrap;html=1;aspect=fixed;" vertex="1" parent="1">
          <mxGeometry x="45" y="652.47" width="80" height="80" as="geometry" />
        </mxCell>
        <mxCell id="Ww74doINeAtsvLlUqA36-145" value="" style="endArrow=classic;html=1;rounded=0;fontSize=12;startSize=8;endSize=8;curved=1;entryX=0;entryY=0.5;entryDx=0;entryDy=0;" edge="1" parent="1" target="Ww74doINeAtsvLlUqA36-144">
          <mxGeometry width="50" height="50" relative="1" as="geometry">
            <mxPoint x="-50" y="692.47" as="sourcePoint" />
            <mxPoint x="110" y="667.47" as="targetPoint" />
          </mxGeometry>
        </mxCell>
        <mxCell id="Ww74doINeAtsvLlUqA36-146" value="start" style="edgeLabel;html=1;align=center;verticalAlign=middle;resizable=0;points=[];fontSize=12;" vertex="1" connectable="0" parent="Ww74doINeAtsvLlUqA36-145">
          <mxGeometry x="0.5789" y="-2" relative="1" as="geometry">
            <mxPoint as="offset" />
          </mxGeometry>
        </mxCell>
        <mxCell id="Ww74doINeAtsvLlUqA36-147" value="4d" style="text;html=1;align=center;verticalAlign=middle;whiteSpace=wrap;rounded=0;fontSize=16;" vertex="1" parent="1">
          <mxGeometry x="-63" y="557" width="60" height="30" as="geometry" />
        </mxCell>
        <mxCell id="Ww74doINeAtsvLlUqA36-150" value="" style="endArrow=classic;html=1;rounded=0;fontSize=12;startSize=8;endSize=8;curved=1;entryX=0;entryY=0.5;entryDx=0;entryDy=0;exitX=1;exitY=0.5;exitDx=0;exitDy=0;" edge="1" parent="1" source="Ww74doINeAtsvLlUqA36-144">
          <mxGeometry width="50" height="50" relative="1" as="geometry">
            <mxPoint x="125" y="692" as="sourcePoint" />
            <mxPoint x="201" y="692" as="targetPoint" />
            <Array as="points">
              <mxPoint x="160" y="666" />
            </Array>
          </mxGeometry>
        </mxCell>
        <mxCell id="Ww74doINeAtsvLlUqA36-172" value="0, 1" style="edgeLabel;html=1;align=center;verticalAlign=middle;resizable=0;points=[];fontSize=12;" vertex="1" connectable="0" parent="Ww74doINeAtsvLlUqA36-150">
          <mxGeometry x="0.233" y="-9" relative="1" as="geometry">
            <mxPoint as="offset" />
          </mxGeometry>
        </mxCell>
        <mxCell id="Ww74doINeAtsvLlUqA36-152" value="q1" style="ellipse;whiteSpace=wrap;html=1;aspect=fixed;" vertex="1" parent="1">
          <mxGeometry x="198" y="652.47" width="80" height="80" as="geometry" />
        </mxCell>
        <mxCell id="Ww74doINeAtsvLlUqA36-155" value="q3" style="ellipse;whiteSpace=wrap;html=1;aspect=fixed;" vertex="1" parent="1">
          <mxGeometry x="355" y="649" width="80" height="80" as="geometry" />
        </mxCell>
        <mxCell id="Ww74doINeAtsvLlUqA36-156" value="" style="endArrow=classic;html=1;rounded=0;fontSize=12;startSize=8;endSize=8;curved=1;entryX=0;entryY=0.5;entryDx=0;entryDy=0;" edge="1" parent="1">
          <mxGeometry width="50" height="50" relative="1" as="geometry">
            <mxPoint x="278" y="691" as="sourcePoint" />
            <mxPoint x="354" y="693" as="targetPoint" />
            <Array as="points">
              <mxPoint x="313" y="667" />
            </Array>
          </mxGeometry>
        </mxCell>
        <mxCell id="Ww74doINeAtsvLlUqA36-171" value="0" style="edgeLabel;html=1;align=center;verticalAlign=middle;resizable=0;points=[];fontSize=12;" vertex="1" connectable="0" parent="Ww74doINeAtsvLlUqA36-156">
          <mxGeometry x="0.204" y="-6" relative="1" as="geometry">
            <mxPoint as="offset" />
          </mxGeometry>
        </mxCell>
        <mxCell id="Ww74doINeAtsvLlUqA36-160" value="q4" style="ellipse;whiteSpace=wrap;html=1;aspect=fixed;" vertex="1" parent="1">
          <mxGeometry x="512" y="652" width="80" height="80" as="geometry" />
        </mxCell>
        <mxCell id="Ww74doINeAtsvLlUqA36-161" value="" style="endArrow=classic;html=1;rounded=0;fontSize=12;startSize=8;endSize=8;curved=1;entryX=0;entryY=0.5;entryDx=0;entryDy=0;" edge="1" parent="1">
          <mxGeometry width="50" height="50" relative="1" as="geometry">
            <mxPoint x="435" y="694" as="sourcePoint" />
            <mxPoint x="511" y="696" as="targetPoint" />
            <Array as="points">
              <mxPoint x="470" y="670" />
            </Array>
          </mxGeometry>
        </mxCell>
        <mxCell id="Ww74doINeAtsvLlUqA36-175" value="0, 1" style="edgeLabel;html=1;align=center;verticalAlign=middle;resizable=0;points=[];fontSize=12;" vertex="1" connectable="0" parent="Ww74doINeAtsvLlUqA36-161">
          <mxGeometry x="0.1162" y="-11" relative="1" as="geometry">
            <mxPoint as="offset" />
          </mxGeometry>
        </mxCell>
        <mxCell id="Ww74doINeAtsvLlUqA36-165" value="" style="endArrow=classic;html=1;rounded=0;fontSize=12;startSize=8;endSize=8;curved=1;entryX=0;entryY=0.5;entryDx=0;entryDy=0;" edge="1" parent="1">
          <mxGeometry width="50" height="50" relative="1" as="geometry">
            <mxPoint x="592" y="694" as="sourcePoint" />
            <mxPoint x="668" y="696" as="targetPoint" />
            <Array as="points">
              <mxPoint x="627" y="670" />
            </Array>
          </mxGeometry>
        </mxCell>
        <mxCell id="Ww74doINeAtsvLlUqA36-183" value="0,1" style="edgeLabel;html=1;align=center;verticalAlign=middle;resizable=0;points=[];fontSize=12;" vertex="1" connectable="0" parent="Ww74doINeAtsvLlUqA36-165">
          <mxGeometry x="0.1434" y="-6" relative="1" as="geometry">
            <mxPoint as="offset" />
          </mxGeometry>
        </mxCell>
        <mxCell id="Ww74doINeAtsvLlUqA36-169" value="" style="ellipse;whiteSpace=wrap;html=1;aspect=fixed;" vertex="1" parent="1">
          <mxGeometry x="820" y="652.47" width="80" height="80" as="geometry" />
        </mxCell>
        <mxCell id="Ww74doINeAtsvLlUqA36-170" value="q4" style="ellipse;whiteSpace=wrap;html=1;aspect=fixed;" vertex="1" parent="1">
          <mxGeometry x="828.5" y="660.97" width="63" height="63" as="geometry" />
        </mxCell>
        <mxCell id="Ww74doINeAtsvLlUqA36-176" value="q2" style="ellipse;whiteSpace=wrap;html=1;aspect=fixed;" vertex="1" parent="1">
          <mxGeometry x="197.5" y="783" width="80" height="80" as="geometry" />
        </mxCell>
        <mxCell id="Ww74doINeAtsvLlUqA36-177" value="" style="endArrow=classic;html=1;rounded=0;fontSize=12;startSize=8;endSize=8;curved=1;entryX=0.5;entryY=0;entryDx=0;entryDy=0;exitX=0.5;exitY=1;exitDx=0;exitDy=0;" edge="1" parent="1" source="Ww74doINeAtsvLlUqA36-152" target="Ww74doINeAtsvLlUqA36-176">
          <mxGeometry width="50" height="50" relative="1" as="geometry">
            <mxPoint x="273" y="576" as="sourcePoint" />
            <mxPoint x="323" y="526" as="targetPoint" />
          </mxGeometry>
        </mxCell>
        <mxCell id="Ww74doINeAtsvLlUqA36-178" value="1" style="edgeLabel;html=1;align=center;verticalAlign=middle;resizable=0;points=[];fontSize=12;" vertex="1" connectable="0" parent="Ww74doINeAtsvLlUqA36-177">
          <mxGeometry x="-0.1079" y="-1" relative="1" as="geometry">
            <mxPoint as="offset" />
          </mxGeometry>
        </mxCell>
        <mxCell id="Ww74doINeAtsvLlUqA36-182" value="q5" style="ellipse;whiteSpace=wrap;html=1;aspect=fixed;" vertex="1" parent="1">
          <mxGeometry x="666" y="652" width="80" height="80" as="geometry" />
        </mxCell>
        <mxCell id="Ww74doINeAtsvLlUqA36-184" value="" style="endArrow=classic;html=1;rounded=0;fontSize=12;startSize=8;endSize=8;curved=1;entryX=0;entryY=0.5;entryDx=0;entryDy=0;" edge="1" parent="1">
          <mxGeometry width="50" height="50" relative="1" as="geometry">
            <mxPoint x="746" y="693" as="sourcePoint" />
            <mxPoint x="822" y="695" as="targetPoint" />
            <Array as="points">
              <mxPoint x="781" y="669" />
            </Array>
          </mxGeometry>
        </mxCell>
        <mxCell id="Ww74doINeAtsvLlUqA36-185" value="0,1" style="edgeLabel;html=1;align=center;verticalAlign=middle;resizable=0;points=[];fontSize=12;" vertex="1" connectable="0" parent="Ww74doINeAtsvLlUqA36-184">
          <mxGeometry x="0.1434" y="-6" relative="1" as="geometry">
            <mxPoint as="offset" />
          </mxGeometry>
        </mxCell>
        <mxCell id="Ww74doINeAtsvLlUqA36-189" value="q0" style="ellipse;whiteSpace=wrap;html=1;aspect=fixed;" vertex="1" parent="1">
          <mxGeometry x="91" y="1078.47" width="80" height="80" as="geometry" />
        </mxCell>
        <mxCell id="Ww74doINeAtsvLlUqA36-190" value="" style="endArrow=classic;html=1;rounded=0;fontSize=12;startSize=8;endSize=8;curved=1;entryX=0;entryY=0.5;entryDx=0;entryDy=0;" edge="1" parent="1" target="Ww74doINeAtsvLlUqA36-189">
          <mxGeometry width="50" height="50" relative="1" as="geometry">
            <mxPoint x="-4" y="1118.47" as="sourcePoint" />
            <mxPoint x="156" y="1093.47" as="targetPoint" />
          </mxGeometry>
        </mxCell>
        <mxCell id="Ww74doINeAtsvLlUqA36-191" value="start" style="edgeLabel;html=1;align=center;verticalAlign=middle;resizable=0;points=[];fontSize=12;" vertex="1" connectable="0" parent="Ww74doINeAtsvLlUqA36-190">
          <mxGeometry x="0.5789" y="-2" relative="1" as="geometry">
            <mxPoint as="offset" />
          </mxGeometry>
        </mxCell>
        <mxCell id="Ww74doINeAtsvLlUqA36-192" value="4e" style="text;html=1;align=center;verticalAlign=middle;whiteSpace=wrap;rounded=0;fontSize=16;" vertex="1" parent="1">
          <mxGeometry x="-18" y="983" width="60" height="30" as="geometry" />
        </mxCell>
        <mxCell id="Ww74doINeAtsvLlUqA36-193" value="0,1" style="endArrow=classic;html=1;rounded=0;fontSize=12;startSize=8;endSize=8;curved=1;entryX=0;entryY=0.5;entryDx=0;entryDy=0;exitX=1;exitY=0.5;exitDx=0;exitDy=0;" edge="1" parent="1" source="Ww74doINeAtsvLlUqA36-189">
          <mxGeometry width="50" height="50" relative="1" as="geometry">
            <mxPoint x="171" y="1118" as="sourcePoint" />
            <mxPoint x="247" y="1118" as="targetPoint" />
            <Array as="points" />
          </mxGeometry>
        </mxCell>
        <mxCell id="Ww74doINeAtsvLlUqA36-194" value="q1" style="ellipse;whiteSpace=wrap;html=1;aspect=fixed;" vertex="1" parent="1">
          <mxGeometry x="244" y="1078.47" width="80" height="80" as="geometry" />
        </mxCell>
        <mxCell id="Ww74doINeAtsvLlUqA36-195" value="q2" style="ellipse;whiteSpace=wrap;html=1;aspect=fixed;" vertex="1" parent="1">
          <mxGeometry x="401" y="1075" width="80" height="80" as="geometry" />
        </mxCell>
        <mxCell id="Ww74doINeAtsvLlUqA36-196" value="" style="endArrow=classic;html=1;rounded=0;fontSize=12;startSize=8;endSize=8;curved=1;entryX=0;entryY=0.5;entryDx=0;entryDy=0;" edge="1" parent="1">
          <mxGeometry width="50" height="50" relative="1" as="geometry">
            <mxPoint x="324" y="1117" as="sourcePoint" />
            <mxPoint x="400" y="1119" as="targetPoint" />
            <Array as="points">
              <mxPoint x="359" y="1093" />
            </Array>
          </mxGeometry>
        </mxCell>
        <mxCell id="Ww74doINeAtsvLlUqA36-197" value="0" style="edgeLabel;html=1;align=center;verticalAlign=middle;resizable=0;points=[];fontSize=12;" vertex="1" connectable="0" parent="Ww74doINeAtsvLlUqA36-196">
          <mxGeometry x="0.1457" y="-11" relative="1" as="geometry">
            <mxPoint as="offset" />
          </mxGeometry>
        </mxCell>
        <mxCell id="Ww74doINeAtsvLlUqA36-210" value="q3" style="ellipse;whiteSpace=wrap;html=1;aspect=fixed;" vertex="1" parent="1">
          <mxGeometry x="408.74" y="1082.73" width="64.53" height="64.53" as="geometry" />
        </mxCell>
        <mxCell id="Ww74doINeAtsvLlUqA36-211" value="q1" style="ellipse;whiteSpace=wrap;html=1;aspect=fixed;" vertex="1" parent="1">
          <mxGeometry x="251.74" y="1086.2" width="64.53" height="64.53" as="geometry" />
        </mxCell>
        <mxCell id="Ww74doINeAtsvLlUqA36-212" value="q0" style="ellipse;whiteSpace=wrap;html=1;aspect=fixed;" vertex="1" parent="1">
          <mxGeometry x="98.74000000000001" y="1086.21" width="64.53" height="64.53" as="geometry" />
        </mxCell>
        <mxCell id="Ww74doINeAtsvLlUqA36-221" value="q2" style="ellipse;whiteSpace=wrap;html=1;aspect=fixed;" vertex="1" parent="1">
          <mxGeometry x="399" y="1209.47" width="80" height="80" as="geometry" />
        </mxCell>
        <mxCell id="Ww74doINeAtsvLlUqA36-222" value="" style="endArrow=classic;html=1;rounded=0;fontSize=12;startSize=8;endSize=8;curved=1;entryX=0.5;entryY=0;entryDx=0;entryDy=0;exitX=0.5;exitY=1;exitDx=0;exitDy=0;" edge="1" parent="1" target="Ww74doINeAtsvLlUqA36-221">
          <mxGeometry width="50" height="50" relative="1" as="geometry">
            <mxPoint x="439.5" y="1158.47" as="sourcePoint" />
            <mxPoint x="524.5" y="952.47" as="targetPoint" />
          </mxGeometry>
        </mxCell>
        <mxCell id="Ww74doINeAtsvLlUqA36-223" value="1" style="edgeLabel;html=1;align=center;verticalAlign=middle;resizable=0;points=[];fontSize=12;" vertex="1" connectable="0" parent="Ww74doINeAtsvLlUqA36-222">
          <mxGeometry x="-0.1079" y="-1" relative="1" as="geometry">
            <mxPoint as="offset" />
          </mxGeometry>
        </mxCell>
        <mxCell id="Ww74doINeAtsvLlUqA36-226" value="" style="endArrow=classic;html=1;rounded=0;fontSize=12;startSize=8;endSize=8;curved=1;entryX=0.5;entryY=1;entryDx=0;entryDy=0;exitX=0;exitY=0.5;exitDx=0;exitDy=0;" edge="1" parent="1" source="Ww74doINeAtsvLlUqA36-221">
          <mxGeometry width="50" height="50" relative="1" as="geometry">
            <mxPoint x="714" y="998" as="sourcePoint" />
            <mxPoint x="286" y="1158.4700000000003" as="targetPoint" />
          </mxGeometry>
        </mxCell>
        <mxCell id="Ww74doINeAtsvLlUqA36-227" value="0,1" style="edgeLabel;html=1;align=center;verticalAlign=middle;resizable=0;points=[];fontSize=12;" vertex="1" connectable="0" parent="Ww74doINeAtsvLlUqA36-226">
          <mxGeometry x="-0.0766" y="-2" relative="1" as="geometry">
            <mxPoint as="offset" />
          </mxGeometry>
        </mxCell>
        <mxCell id="Ww74doINeAtsvLlUqA36-228" value="" style="endArrow=classic;html=1;rounded=0;fontSize=12;startSize=8;endSize=8;curved=1;entryX=1;entryY=0;entryDx=0;entryDy=0;exitX=0.888;exitY=0.244;exitDx=0;exitDy=0;exitPerimeter=0;" edge="1" parent="1">
          <mxGeometry width="50" height="50" relative="1" as="geometry">
            <mxPoint x="442" y="1071.2" as="sourcePoint" />
            <mxPoint x="478.27" y="1082.73" as="targetPoint" />
            <Array as="points">
              <mxPoint x="512" y="986.2" />
            </Array>
          </mxGeometry>
        </mxCell>
        <mxCell id="Ww74doINeAtsvLlUqA36-229" value="0" style="edgeLabel;html=1;align=center;verticalAlign=middle;resizable=0;points=[];fontSize=12;" vertex="1" connectable="0" parent="Ww74doINeAtsvLlUqA36-228">
          <mxGeometry x="-0.7056" y="2" relative="1" as="geometry">
            <mxPoint as="offset" />
          </mxGeometry>
        </mxCell>
        <mxCell id="Ww74doINeAtsvLlUqA36-234" value="" style="endArrow=classic;html=1;rounded=0;fontSize=12;startSize=8;endSize=8;curved=1;entryX=1;entryY=0;entryDx=0;entryDy=0;exitX=0.888;exitY=0.244;exitDx=0;exitDy=0;exitPerimeter=0;" edge="1" parent="1">
          <mxGeometry width="50" height="50" relative="1" as="geometry">
            <mxPoint x="276" y="1074.67" as="sourcePoint" />
            <mxPoint x="312.27" y="1086.2" as="targetPoint" />
            <Array as="points">
              <mxPoint x="346" y="989.6700000000001" />
            </Array>
          </mxGeometry>
        </mxCell>
        <mxCell id="Ww74doINeAtsvLlUqA36-235" value="1" style="edgeLabel;html=1;align=center;verticalAlign=middle;resizable=0;points=[];fontSize=12;" vertex="1" connectable="0" parent="Ww74doINeAtsvLlUqA36-234">
          <mxGeometry x="-0.7056" y="2" relative="1" as="geometry">
            <mxPoint as="offset" />
          </mxGeometry>
        </mxCell>
      </root>
    </mxGraphModel>
  </diagram>
</mxfile>
